<mxfile host="app.diagrams.net" modified="2021-04-06T20:12:56.362Z" agent="5.0 (Windows NT 10.0; Win64; x64) AppleWebKit/537.36 (KHTML, like Gecko) Chrome/89.0.4389.114 Safari/537.36" etag="kz_MgKO8lMJ5rdI37I2n" version="14.5.8" type="github" pages="4">
  <diagram id="6a731a19-8d31-9384-78a2-239565b7b9f0" name="Main_Tab">
    <mxGraphModel dx="1504" dy="682" grid="1" gridSize="10" guides="1" tooltips="1" connect="1" arrows="1" fold="1" page="1" pageScale="1" pageWidth="1600" pageHeight="1200" background="#ffffff" math="0" shadow="0">
      <root>
        <mxCell id="0" />
        <mxCell id="1" parent="0" />
        <mxCell id="tTzITee3SI3V6Dp85nhz-55" value="Load&amp;nbsp; Test Button" style="text;html=1;strokeColor=none;fillColor=none;align=center;verticalAlign=middle;whiteSpace=wrap;rounded=0;" parent="1" vertex="1">
          <mxGeometry x="40" y="30" width="110" height="20" as="geometry" />
        </mxCell>
        <mxCell id="tTzITee3SI3V6Dp85nhz-83" value="" style="edgeStyle=orthogonalEdgeStyle;rounded=0;orthogonalLoop=1;jettySize=auto;html=1;" parent="1" source="tTzITee3SI3V6Dp85nhz-56" target="tTzITee3SI3V6Dp85nhz-82" edge="1">
          <mxGeometry relative="1" as="geometry" />
        </mxCell>
        <mxCell id="tTzITee3SI3V6Dp85nhz-56" value="Load Test Pushed" style="rounded=1;whiteSpace=wrap;html=1;" parent="1" vertex="1">
          <mxGeometry x="45" y="70" width="100" height="40" as="geometry" />
        </mxCell>
        <mxCell id="tTzITee3SI3V6Dp85nhz-61" value="No" style="edgeStyle=orthogonalEdgeStyle;rounded=0;orthogonalLoop=1;jettySize=auto;html=1;" parent="1" source="tTzITee3SI3V6Dp85nhz-59" target="tTzITee3SI3V6Dp85nhz-60" edge="1">
          <mxGeometry relative="1" as="geometry" />
        </mxCell>
        <mxCell id="tTzITee3SI3V6Dp85nhz-67" value="Yes" style="edgeStyle=orthogonalEdgeStyle;rounded=0;orthogonalLoop=1;jettySize=auto;html=1;" parent="1" source="tTzITee3SI3V6Dp85nhz-59" target="tTzITee3SI3V6Dp85nhz-66" edge="1">
          <mxGeometry relative="1" as="geometry" />
        </mxCell>
        <mxCell id="tTzITee3SI3V6Dp85nhz-59" value="If Index of SelectedTest !=-1" style="rhombus;whiteSpace=wrap;html=1;" parent="1" vertex="1">
          <mxGeometry x="47.5" y="248.25" width="95" height="80" as="geometry" />
        </mxCell>
        <mxCell id="tTzITee3SI3V6Dp85nhz-72" value="" style="edgeStyle=orthogonalEdgeStyle;rounded=0;orthogonalLoop=1;jettySize=auto;html=1;" parent="1" source="tTzITee3SI3V6Dp85nhz-60" target="tTzITee3SI3V6Dp85nhz-70" edge="1">
          <mxGeometry relative="1" as="geometry" />
        </mxCell>
        <mxCell id="tTzITee3SI3V6Dp85nhz-60" value="Messagebox:&amp;nbsp; No Test Selected" style="ellipse;whiteSpace=wrap;html=1;" parent="1" vertex="1">
          <mxGeometry x="195" y="248.25" width="120" height="80" as="geometry" />
        </mxCell>
        <mxCell id="UficYF0TFEuOsEOERnPV-9" value="Yes" style="edgeStyle=orthogonalEdgeStyle;rounded=0;orthogonalLoop=1;jettySize=auto;html=1;" parent="1" source="tTzITee3SI3V6Dp85nhz-66" target="UficYF0TFEuOsEOERnPV-4" edge="1">
          <mxGeometry relative="1" as="geometry" />
        </mxCell>
        <mxCell id="UficYF0TFEuOsEOERnPV-13" value="No" style="edgeStyle=orthogonalEdgeStyle;rounded=0;orthogonalLoop=1;jettySize=auto;html=1;" parent="1" source="tTzITee3SI3V6Dp85nhz-66" target="UficYF0TFEuOsEOERnPV-11" edge="1">
          <mxGeometry relative="1" as="geometry" />
        </mxCell>
        <mxCell id="tTzITee3SI3V6Dp85nhz-66" value="If LoadTest(test) is True" style="rhombus;whiteSpace=wrap;html=1;" parent="1" vertex="1">
          <mxGeometry x="55" y="378.25" width="80" height="80" as="geometry" />
        </mxCell>
        <mxCell id="UficYF0TFEuOsEOERnPV-29" value="" style="edgeStyle=orthogonalEdgeStyle;rounded=0;orthogonalLoop=1;jettySize=auto;html=1;" parent="1" source="tTzITee3SI3V6Dp85nhz-68" target="UficYF0TFEuOsEOERnPV-28" edge="1">
          <mxGeometry relative="1" as="geometry" />
        </mxCell>
        <mxCell id="tTzITee3SI3V6Dp85nhz-68" value="TestLoadNextTestStage()" style="whiteSpace=wrap;html=1;" parent="1" vertex="1">
          <mxGeometry x="35" y="830" width="120" height="60" as="geometry" />
        </mxCell>
        <mxCell id="tTzITee3SI3V6Dp85nhz-70" value="End Loop" style="strokeWidth=2;html=1;shape=mxgraph.flowchart.terminator;whiteSpace=wrap;" parent="1" vertex="1">
          <mxGeometry x="390" y="258.25" width="100" height="60" as="geometry" />
        </mxCell>
        <mxCell id="tTzITee3SI3V6Dp85nhz-75" value="" style="edgeStyle=orthogonalEdgeStyle;rounded=0;orthogonalLoop=1;jettySize=auto;html=1;" parent="1" source="tTzITee3SI3V6Dp85nhz-73" target="tTzITee3SI3V6Dp85nhz-74" edge="1">
          <mxGeometry relative="1" as="geometry" />
        </mxCell>
        <mxCell id="tTzITee3SI3V6Dp85nhz-73" value="LoadTest(string test)" style="strokeWidth=2;html=1;shape=mxgraph.flowchart.start_2;whiteSpace=wrap;" parent="1" vertex="1">
          <mxGeometry x="2530" y="70" width="100" height="100" as="geometry" />
        </mxCell>
        <mxCell id="tTzITee3SI3V6Dp85nhz-77" value="" style="edgeStyle=orthogonalEdgeStyle;rounded=0;orthogonalLoop=1;jettySize=auto;html=1;" parent="1" source="tTzITee3SI3V6Dp85nhz-74" target="tTzITee3SI3V6Dp85nhz-76" edge="1">
          <mxGeometry relative="1" as="geometry" />
        </mxCell>
        <mxCell id="tTzITee3SI3V6Dp85nhz-74" value="P2 = self.path / &quot;tests&quot; / test" style="whiteSpace=wrap;html=1;strokeWidth=2;" parent="1" vertex="1">
          <mxGeometry x="2520" y="192.5" width="120" height="60" as="geometry" />
        </mxCell>
        <mxCell id="tTzITee3SI3V6Dp85nhz-79" value="No" style="edgeStyle=orthogonalEdgeStyle;rounded=0;orthogonalLoop=1;jettySize=auto;html=1;" parent="1" source="tTzITee3SI3V6Dp85nhz-76" target="tTzITee3SI3V6Dp85nhz-78" edge="1">
          <mxGeometry relative="1" as="geometry" />
        </mxCell>
        <mxCell id="tTzITee3SI3V6Dp85nhz-81" value="Yes" style="edgeStyle=orthogonalEdgeStyle;rounded=0;orthogonalLoop=1;jettySize=auto;html=1;" parent="1" source="tTzITee3SI3V6Dp85nhz-76" edge="1">
          <mxGeometry relative="1" as="geometry">
            <mxPoint x="2580" y="400" as="targetPoint" />
          </mxGeometry>
        </mxCell>
        <mxCell id="tTzITee3SI3V6Dp85nhz-76" value="If p2.Exists" style="rhombus;whiteSpace=wrap;html=1;strokeWidth=2;" parent="1" vertex="1">
          <mxGeometry x="2540" y="280" width="80" height="80" as="geometry" />
        </mxCell>
        <mxCell id="tTzITee3SI3V6Dp85nhz-78" value="return False" style="strokeWidth=2;html=1;shape=mxgraph.flowchart.terminator;whiteSpace=wrap;" parent="1" vertex="1">
          <mxGeometry x="2670" y="290" width="100" height="60" as="geometry" />
        </mxCell>
        <mxCell id="tTzITee3SI3V6Dp85nhz-84" value="Yes" style="edgeStyle=orthogonalEdgeStyle;rounded=0;orthogonalLoop=1;jettySize=auto;html=1;" parent="1" source="tTzITee3SI3V6Dp85nhz-82" target="tTzITee3SI3V6Dp85nhz-59" edge="1">
          <mxGeometry relative="1" as="geometry" />
        </mxCell>
        <mxCell id="tTzITee3SI3V6Dp85nhz-86" value="No" style="edgeStyle=orthogonalEdgeStyle;rounded=0;orthogonalLoop=1;jettySize=auto;html=1;" parent="1" source="tTzITee3SI3V6Dp85nhz-82" target="tTzITee3SI3V6Dp85nhz-85" edge="1">
          <mxGeometry relative="1" as="geometry" />
        </mxCell>
        <mxCell id="tTzITee3SI3V6Dp85nhz-82" value="If&amp;nbsp; mode!=0" style="rhombus;whiteSpace=wrap;html=1;" parent="1" vertex="1">
          <mxGeometry x="55" y="140" width="80" height="80" as="geometry" />
        </mxCell>
        <mxCell id="tTzITee3SI3V6Dp85nhz-88" value="" style="edgeStyle=orthogonalEdgeStyle;rounded=0;orthogonalLoop=1;jettySize=auto;html=1;" parent="1" source="tTzITee3SI3V6Dp85nhz-85" target="tTzITee3SI3V6Dp85nhz-87" edge="1">
          <mxGeometry relative="1" as="geometry" />
        </mxCell>
        <mxCell id="tTzITee3SI3V6Dp85nhz-85" value="Messagebox:&amp;nbsp; Error - not able to load test, current test in progress, or creating test." style="ellipse;whiteSpace=wrap;html=1;" parent="1" vertex="1">
          <mxGeometry x="210" y="135" width="150" height="95" as="geometry" />
        </mxCell>
        <mxCell id="tTzITee3SI3V6Dp85nhz-87" value="End Loop" style="strokeWidth=2;html=1;shape=mxgraph.flowchart.terminator;whiteSpace=wrap;" parent="1" vertex="1">
          <mxGeometry x="390" y="152.5" width="100" height="60" as="geometry" />
        </mxCell>
        <mxCell id="tTzITee3SI3V6Dp85nhz-89" value="Note: LoadTest can only be called if in mode 0." style="text;html=1;align=center;verticalAlign=middle;resizable=0;points=[];autosize=1;" parent="1" vertex="1">
          <mxGeometry x="2490" y="30" width="270" height="20" as="geometry" />
        </mxCell>
        <mxCell id="UficYF0TFEuOsEOERnPV-15" value="No" style="edgeStyle=orthogonalEdgeStyle;rounded=0;orthogonalLoop=1;jettySize=auto;html=1;" parent="1" source="UficYF0TFEuOsEOERnPV-4" target="UficYF0TFEuOsEOERnPV-14" edge="1">
          <mxGeometry relative="1" as="geometry" />
        </mxCell>
        <mxCell id="UficYF0TFEuOsEOERnPV-21" value="Yes" style="edgeStyle=orthogonalEdgeStyle;rounded=0;orthogonalLoop=1;jettySize=auto;html=1;" parent="1" source="UficYF0TFEuOsEOERnPV-4" target="UficYF0TFEuOsEOERnPV-20" edge="1">
          <mxGeometry relative="1" as="geometry" />
        </mxCell>
        <mxCell id="UficYF0TFEuOsEOERnPV-4" value="If ConnectSerial() == True" style="rhombus;whiteSpace=wrap;html=1;strokeWidth=1;" parent="1" vertex="1">
          <mxGeometry x="45" y="510" width="100" height="90" as="geometry" />
        </mxCell>
        <mxCell id="UficYF0TFEuOsEOERnPV-8" value="return LoadTestSequence(P2)" style="strokeWidth=2;html=1;shape=mxgraph.flowchart.terminator;whiteSpace=wrap;" parent="1" vertex="1">
          <mxGeometry x="2500" y="400" width="160" height="60" as="geometry" />
        </mxCell>
        <mxCell id="UficYF0TFEuOsEOERnPV-10" value="" style="edgeStyle=orthogonalEdgeStyle;rounded=0;orthogonalLoop=1;jettySize=auto;html=1;" parent="1" source="UficYF0TFEuOsEOERnPV-11" target="UficYF0TFEuOsEOERnPV-12" edge="1">
          <mxGeometry relative="1" as="geometry" />
        </mxCell>
        <mxCell id="UficYF0TFEuOsEOERnPV-11" value="Messagebox:&amp;nbsp; LoadTest failed" style="ellipse;whiteSpace=wrap;html=1;" parent="1" vertex="1">
          <mxGeometry x="190" y="378.25" width="120" height="80" as="geometry" />
        </mxCell>
        <mxCell id="UficYF0TFEuOsEOERnPV-12" value="End Loop" style="strokeWidth=2;html=1;shape=mxgraph.flowchart.terminator;whiteSpace=wrap;" parent="1" vertex="1">
          <mxGeometry x="390" y="388.25" width="100" height="60" as="geometry" />
        </mxCell>
        <mxCell id="UficYF0TFEuOsEOERnPV-17" value="" style="edgeStyle=orthogonalEdgeStyle;rounded=0;orthogonalLoop=1;jettySize=auto;html=1;" parent="1" source="UficYF0TFEuOsEOERnPV-14" target="UficYF0TFEuOsEOERnPV-16" edge="1">
          <mxGeometry relative="1" as="geometry" />
        </mxCell>
        <mxCell id="UficYF0TFEuOsEOERnPV-14" value="Messagebox: Error connecting to Serial." style="ellipse;whiteSpace=wrap;html=1;strokeWidth=1;" parent="1" vertex="1">
          <mxGeometry x="190" y="515" width="120" height="80" as="geometry" />
        </mxCell>
        <mxCell id="UficYF0TFEuOsEOERnPV-19" value="" style="edgeStyle=orthogonalEdgeStyle;rounded=0;orthogonalLoop=1;jettySize=auto;html=1;" parent="1" source="UficYF0TFEuOsEOERnPV-16" target="UficYF0TFEuOsEOERnPV-18" edge="1">
          <mxGeometry relative="1" as="geometry" />
        </mxCell>
        <mxCell id="UficYF0TFEuOsEOERnPV-16" value="ClearTestVariables()" style="whiteSpace=wrap;html=1;strokeWidth=1;" parent="1" vertex="1">
          <mxGeometry x="335" y="525" width="120" height="60" as="geometry" />
        </mxCell>
        <mxCell id="UficYF0TFEuOsEOERnPV-18" value="End Loop" style="strokeWidth=2;html=1;shape=mxgraph.flowchart.terminator;whiteSpace=wrap;" parent="1" vertex="1">
          <mxGeometry x="490" y="525" width="100" height="60" as="geometry" />
        </mxCell>
        <mxCell id="UficYF0TFEuOsEOERnPV-26" value="" style="edgeStyle=orthogonalEdgeStyle;rounded=0;orthogonalLoop=1;jettySize=auto;html=1;" parent="1" source="UficYF0TFEuOsEOERnPV-20" target="UficYF0TFEuOsEOERnPV-24" edge="1">
          <mxGeometry relative="1" as="geometry" />
        </mxCell>
        <mxCell id="UficYF0TFEuOsEOERnPV-20" value="CurrentMode = 1" style="whiteSpace=wrap;html=1;strokeWidth=1;" parent="1" vertex="1">
          <mxGeometry x="35" y="640" width="120" height="60" as="geometry" />
        </mxCell>
        <mxCell id="UficYF0TFEuOsEOERnPV-27" value="" style="edgeStyle=orthogonalEdgeStyle;rounded=0;orthogonalLoop=1;jettySize=auto;html=1;" parent="1" source="UficYF0TFEuOsEOERnPV-24" target="tTzITee3SI3V6Dp85nhz-68" edge="1">
          <mxGeometry relative="1" as="geometry" />
        </mxCell>
        <mxCell id="UficYF0TFEuOsEOERnPV-24" value="InitializePins()" style="whiteSpace=wrap;html=1;" parent="1" vertex="1">
          <mxGeometry x="35" y="740" width="120" height="60" as="geometry" />
        </mxCell>
        <mxCell id="UficYF0TFEuOsEOERnPV-31" value="" style="edgeStyle=orthogonalEdgeStyle;rounded=0;orthogonalLoop=1;jettySize=auto;html=1;" parent="1" source="UficYF0TFEuOsEOERnPV-28" target="UficYF0TFEuOsEOERnPV-30" edge="1">
          <mxGeometry relative="1" as="geometry" />
        </mxCell>
        <mxCell id="UficYF0TFEuOsEOERnPV-28" value="NotebookPage.Set(Test_Page)" style="whiteSpace=wrap;html=1;" parent="1" vertex="1">
          <mxGeometry x="35" y="930" width="120" height="60" as="geometry" />
        </mxCell>
        <mxCell id="UficYF0TFEuOsEOERnPV-30" value="End Loop" style="strokeWidth=2;html=1;shape=mxgraph.flowchart.terminator;whiteSpace=wrap;" parent="1" vertex="1">
          <mxGeometry x="45" y="1020" width="100" height="60" as="geometry" />
        </mxCell>
        <mxCell id="UficYF0TFEuOsEOERnPV-36" value="" style="edgeStyle=orthogonalEdgeStyle;rounded=0;orthogonalLoop=1;jettySize=auto;html=1;" parent="1" source="UficYF0TFEuOsEOERnPV-33" target="UficYF0TFEuOsEOERnPV-35" edge="1">
          <mxGeometry relative="1" as="geometry" />
        </mxCell>
        <mxCell id="UficYF0TFEuOsEOERnPV-33" value="ConnectSerial()" style="strokeWidth=2;html=1;shape=mxgraph.flowchart.start_2;whiteSpace=wrap;" parent="1" vertex="1">
          <mxGeometry x="2890" y="70" width="100" height="100" as="geometry" />
        </mxCell>
        <mxCell id="UficYF0TFEuOsEOERnPV-38" value="Yes" style="edgeStyle=orthogonalEdgeStyle;rounded=0;orthogonalLoop=1;jettySize=auto;html=1;" parent="1" source="UficYF0TFEuOsEOERnPV-35" target="UficYF0TFEuOsEOERnPV-37" edge="1">
          <mxGeometry relative="1" as="geometry" />
        </mxCell>
        <mxCell id="UficYF0TFEuOsEOERnPV-40" value="No" style="edgeStyle=orthogonalEdgeStyle;rounded=0;orthogonalLoop=1;jettySize=auto;html=1;" parent="1" source="UficYF0TFEuOsEOERnPV-35" target="UficYF0TFEuOsEOERnPV-39" edge="1">
          <mxGeometry relative="1" as="geometry" />
        </mxCell>
        <mxCell id="UficYF0TFEuOsEOERnPV-35" value="If Serial.IsConnected()" style="rhombus;whiteSpace=wrap;html=1;strokeWidth=2;" parent="1" vertex="1">
          <mxGeometry x="2870" y="200" width="140" height="80" as="geometry" />
        </mxCell>
        <mxCell id="UficYF0TFEuOsEOERnPV-37" value="Return True" style="strokeWidth=2;html=1;shape=mxgraph.flowchart.terminator;whiteSpace=wrap;" parent="1" vertex="1">
          <mxGeometry x="2870" y="320" width="140" height="60" as="geometry" />
        </mxCell>
        <mxCell id="UficYF0TFEuOsEOERnPV-41" value="Yes" style="edgeStyle=orthogonalEdgeStyle;rounded=0;orthogonalLoop=1;jettySize=auto;html=1;exitX=0.5;exitY=1;exitDx=0;exitDy=0;entryX=1;entryY=0.5;entryDx=0;entryDy=0;entryPerimeter=0;" parent="1" source="UficYF0TFEuOsEOERnPV-39" target="UficYF0TFEuOsEOERnPV-37" edge="1">
          <mxGeometry relative="1" as="geometry" />
        </mxCell>
        <mxCell id="UficYF0TFEuOsEOERnPV-43" value="No" style="edgeStyle=orthogonalEdgeStyle;rounded=0;orthogonalLoop=1;jettySize=auto;html=1;" parent="1" source="UficYF0TFEuOsEOERnPV-39" target="UficYF0TFEuOsEOERnPV-42" edge="1">
          <mxGeometry relative="1" as="geometry" />
        </mxCell>
        <mxCell id="UficYF0TFEuOsEOERnPV-39" value="If IgnoreSerial.IsChecked" style="rhombus;whiteSpace=wrap;html=1;strokeWidth=2;" parent="1" vertex="1">
          <mxGeometry x="3080" y="195" width="180" height="90" as="geometry" />
        </mxCell>
        <mxCell id="UficYF0TFEuOsEOERnPV-45" value="Yes" style="edgeStyle=orthogonalEdgeStyle;rounded=0;orthogonalLoop=1;jettySize=auto;html=1;" parent="1" source="UficYF0TFEuOsEOERnPV-42" edge="1">
          <mxGeometry relative="1" as="geometry">
            <mxPoint x="3360" y="370" as="targetPoint" />
          </mxGeometry>
        </mxCell>
        <mxCell id="UficYF0TFEuOsEOERnPV-47" value="No" style="edgeStyle=orthogonalEdgeStyle;rounded=0;orthogonalLoop=1;jettySize=auto;html=1;" parent="1" source="UficYF0TFEuOsEOERnPV-42" target="UficYF0TFEuOsEOERnPV-46" edge="1">
          <mxGeometry relative="1" as="geometry" />
        </mxCell>
        <mxCell id="UficYF0TFEuOsEOERnPV-42" value="If Port Selected" style="rhombus;whiteSpace=wrap;html=1;strokeWidth=2;" parent="1" vertex="1">
          <mxGeometry x="3310" y="195" width="100" height="90" as="geometry" />
        </mxCell>
        <mxCell id="UficYF0TFEuOsEOERnPV-49" value="" style="edgeStyle=orthogonalEdgeStyle;rounded=0;orthogonalLoop=1;jettySize=auto;html=1;" parent="1" source="UficYF0TFEuOsEOERnPV-46" target="UficYF0TFEuOsEOERnPV-48" edge="1">
          <mxGeometry relative="1" as="geometry" />
        </mxCell>
        <mxCell id="UficYF0TFEuOsEOERnPV-46" value="MessageBox:&amp;nbsp; Please Select a Port" style="ellipse;whiteSpace=wrap;html=1;strokeWidth=2;" parent="1" vertex="1">
          <mxGeometry x="3460" y="200" width="120" height="80" as="geometry" />
        </mxCell>
        <mxCell id="UficYF0TFEuOsEOERnPV-48" value="return False" style="strokeWidth=2;html=1;shape=mxgraph.flowchart.terminator;whiteSpace=wrap;" parent="1" vertex="1">
          <mxGeometry x="3620" y="210" width="100" height="60" as="geometry" />
        </mxCell>
        <mxCell id="ir7IwgKp179g5_XmWtsQ-1" value="PinControl.ConnectSerial()" style="rounded=0;whiteSpace=wrap;html=1;" parent="1" vertex="1">
          <mxGeometry x="3280" y="368.25" width="160" height="51.75" as="geometry" />
        </mxCell>
        <mxCell id="ir7IwgKp179g5_XmWtsQ-4" value="" style="edgeStyle=orthogonalEdgeStyle;rounded=0;orthogonalLoop=1;jettySize=auto;html=1;entryX=0.5;entryY=0;entryDx=0;entryDy=0;" parent="1" source="ir7IwgKp179g5_XmWtsQ-2" target="VLrwDN9U09hXujgsO5i5-10" edge="1">
          <mxGeometry relative="1" as="geometry" />
        </mxCell>
        <mxCell id="ir7IwgKp179g5_XmWtsQ-2" value="initializePins()" style="strokeWidth=2;html=1;shape=mxgraph.flowchart.start_2;whiteSpace=wrap;" parent="1" vertex="1">
          <mxGeometry x="2920" y="470" width="100" height="100" as="geometry" />
        </mxCell>
        <mxCell id="ir7IwgKp179g5_XmWtsQ-6" value="Yes" style="edgeStyle=orthogonalEdgeStyle;rounded=0;orthogonalLoop=1;jettySize=auto;html=1;entryX=0.5;entryY=0;entryDx=0;entryDy=0;" parent="1" source="ir7IwgKp179g5_XmWtsQ-3" target="ir7IwgKp179g5_XmWtsQ-9" edge="1">
          <mxGeometry relative="1" as="geometry" />
        </mxCell>
        <mxCell id="ir7IwgKp179g5_XmWtsQ-10" value="No" style="edgeStyle=orthogonalEdgeStyle;rounded=0;orthogonalLoop=1;jettySize=auto;html=1;" parent="1" source="ir7IwgKp179g5_XmWtsQ-3" target="ir7IwgKp179g5_XmWtsQ-5" edge="1">
          <mxGeometry relative="1" as="geometry" />
        </mxCell>
        <mxCell id="ir7IwgKp179g5_XmWtsQ-3" value="if ignoreSerial.isChecked()" style="rhombus;whiteSpace=wrap;html=1;strokeWidth=2;" parent="1" vertex="1">
          <mxGeometry x="2640" y="830" width="200" height="130" as="geometry" />
        </mxCell>
        <mxCell id="VLrwDN9U09hXujgsO5i5-14" value="" style="edgeStyle=orthogonalEdgeStyle;rounded=0;orthogonalLoop=1;jettySize=auto;html=1;" parent="1" source="ir7IwgKp179g5_XmWtsQ-5" target="VLrwDN9U09hXujgsO5i5-7" edge="1">
          <mxGeometry relative="1" as="geometry" />
        </mxCell>
        <mxCell id="ir7IwgKp179g5_XmWtsQ-5" value="PinControl.ResetBox" style="whiteSpace=wrap;html=1;strokeWidth=2;" parent="1" vertex="1">
          <mxGeometry x="2910" y="865" width="120" height="60" as="geometry" />
        </mxCell>
        <mxCell id="ir7IwgKp179g5_XmWtsQ-9" value="End Loop" style="rounded=1;whiteSpace=wrap;html=1;" parent="1" vertex="1">
          <mxGeometry x="2680" y="1000" width="120" height="60" as="geometry" />
        </mxCell>
        <mxCell id="VLrwDN9U09hXujgsO5i5-16" value="" style="edgeStyle=orthogonalEdgeStyle;rounded=0;orthogonalLoop=1;jettySize=auto;html=1;" parent="1" source="VLrwDN9U09hXujgsO5i5-7" target="VLrwDN9U09hXujgsO5i5-15" edge="1">
          <mxGeometry relative="1" as="geometry" />
        </mxCell>
        <mxCell id="VLrwDN9U09hXujgsO5i5-7" value="PinControl.ConfigPinIO()" style="whiteSpace=wrap;html=1;strokeWidth=2;" parent="1" vertex="1">
          <mxGeometry x="2895" y="990" width="150" height="70" as="geometry" />
        </mxCell>
        <mxCell id="VLrwDN9U09hXujgsO5i5-9" value="If X exists" style="edgeStyle=orthogonalEdgeStyle;rounded=0;orthogonalLoop=1;jettySize=auto;html=1;" parent="1" source="VLrwDN9U09hXujgsO5i5-10" target="VLrwDN9U09hXujgsO5i5-11" edge="1">
          <mxGeometry relative="1" as="geometry" />
        </mxCell>
        <mxCell id="VLrwDN9U09hXujgsO5i5-13" value="X Does Not Exist" style="edgeStyle=orthogonalEdgeStyle;rounded=0;orthogonalLoop=1;jettySize=auto;html=1;exitX=1;exitY=0.5;exitDx=0;exitDy=0;entryX=0.5;entryY=0;entryDx=0;entryDy=0;" parent="1" source="VLrwDN9U09hXujgsO5i5-10" target="ir7IwgKp179g5_XmWtsQ-3" edge="1">
          <mxGeometry x="-0.6721" relative="1" as="geometry">
            <Array as="points">
              <mxPoint x="3090" y="630" />
              <mxPoint x="3090" y="800" />
              <mxPoint x="2740" y="800" />
            </Array>
            <mxPoint as="offset" />
          </mxGeometry>
        </mxCell>
        <mxCell id="VLrwDN9U09hXujgsO5i5-10" value="For X in TestPinsList" style="shape=hexagon;perimeter=hexagonPerimeter2;whiteSpace=wrap;html=1;fixedSize=1;strokeWidth=2;" parent="1" vertex="1">
          <mxGeometry x="2910" y="590" width="120" height="80" as="geometry" />
        </mxCell>
        <mxCell id="VLrwDN9U09hXujgsO5i5-12" style="edgeStyle=orthogonalEdgeStyle;rounded=0;orthogonalLoop=1;jettySize=auto;html=1;exitX=0.5;exitY=1;exitDx=0;exitDy=0;entryX=0;entryY=0.5;entryDx=0;entryDy=0;" parent="1" source="VLrwDN9U09hXujgsO5i5-11" target="VLrwDN9U09hXujgsO5i5-10" edge="1">
          <mxGeometry relative="1" as="geometry">
            <Array as="points">
              <mxPoint x="2970" y="790" />
              <mxPoint x="2870" y="790" />
              <mxPoint x="2870" y="630" />
            </Array>
          </mxGeometry>
        </mxCell>
        <mxCell id="VLrwDN9U09hXujgsO5i5-11" value="PinControl.UpdatePin(X)" style="whiteSpace=wrap;html=1;strokeWidth=2;" parent="1" vertex="1">
          <mxGeometry x="2900" y="710" width="140" height="60" as="geometry" />
        </mxCell>
        <mxCell id="VLrwDN9U09hXujgsO5i5-18" value="" style="edgeStyle=orthogonalEdgeStyle;rounded=0;orthogonalLoop=1;jettySize=auto;html=1;" parent="1" source="VLrwDN9U09hXujgsO5i5-15" target="VLrwDN9U09hXujgsO5i5-17" edge="1">
          <mxGeometry relative="1" as="geometry" />
        </mxCell>
        <mxCell id="VLrwDN9U09hXujgsO5i5-15" value="PinControl.ConfigOutputTime()" style="whiteSpace=wrap;html=1;strokeWidth=2;" parent="1" vertex="1">
          <mxGeometry x="2880" y="1100" width="180" height="90" as="geometry" />
        </mxCell>
        <mxCell id="VLrwDN9U09hXujgsO5i5-17" value="End Loop" style="strokeWidth=2;html=1;shape=mxgraph.flowchart.terminator;whiteSpace=wrap;" parent="1" vertex="1">
          <mxGeometry x="2920" y="1230" width="100" height="60" as="geometry" />
        </mxCell>
        <mxCell id="VLrwDN9U09hXujgsO5i5-20" value="currentStage = test.getNextTest()" style="whiteSpace=wrap;html=1;strokeWidth=2;" parent="1" vertex="1">
          <mxGeometry x="3297.5" y="1020" width="120" height="60" as="geometry" />
        </mxCell>
        <mxCell id="VLrwDN9U09hXujgsO5i5-29" value="Yes" style="edgeStyle=orthogonalEdgeStyle;rounded=0;orthogonalLoop=1;jettySize=auto;html=1;entryX=0.5;entryY=0;entryDx=0;entryDy=0;" parent="1" source="VLrwDN9U09hXujgsO5i5-26" target="VLrwDN9U09hXujgsO5i5-20" edge="1">
          <mxGeometry relative="1" as="geometry">
            <mxPoint x="3357.5" y="1015" as="targetPoint" />
          </mxGeometry>
        </mxCell>
        <mxCell id="VLrwDN9U09hXujgsO5i5-31" value="No" style="edgeStyle=orthogonalEdgeStyle;rounded=0;orthogonalLoop=1;jettySize=auto;html=1;" parent="1" source="VLrwDN9U09hXujgsO5i5-26" target="VLrwDN9U09hXujgsO5i5-30" edge="1">
          <mxGeometry relative="1" as="geometry" />
        </mxCell>
        <mxCell id="VLrwDN9U09hXujgsO5i5-26" value="if test.isNextTestStage()" style="rhombus;whiteSpace=wrap;html=1;strokeWidth=2;" parent="1" vertex="1">
          <mxGeometry x="3282.5" y="880" width="145" height="90" as="geometry" />
        </mxCell>
        <mxCell id="VLrwDN9U09hXujgsO5i5-30" value="FinishTest" style="whiteSpace=wrap;html=1;strokeWidth=2;" parent="1" vertex="1">
          <mxGeometry x="3472.5" y="895" width="120" height="60" as="geometry" />
        </mxCell>
        <mxCell id="zyAhgqpcMAbRngAJx9lP-7" value="" style="edgeStyle=orthogonalEdgeStyle;rounded=0;orthogonalLoop=1;jettySize=auto;html=1;" parent="1" source="zyAhgqpcMAbRngAJx9lP-1" target="zyAhgqpcMAbRngAJx9lP-5" edge="1">
          <mxGeometry relative="1" as="geometry" />
        </mxCell>
        <mxCell id="zyAhgqpcMAbRngAJx9lP-1" value="Modify Test Pushed" style="rounded=1;whiteSpace=wrap;html=1;" parent="1" vertex="1">
          <mxGeometry x="690" y="70" width="100" height="40" as="geometry" />
        </mxCell>
        <mxCell id="zyAhgqpcMAbRngAJx9lP-2" value="Delete Test Pushed" style="rounded=1;whiteSpace=wrap;html=1;" parent="1" vertex="1">
          <mxGeometry x="1170" y="70" width="100" height="40" as="geometry" />
        </mxCell>
        <mxCell id="zyAhgqpcMAbRngAJx9lP-4" value="New Test Pushed" style="rounded=1;whiteSpace=wrap;html=1;" parent="1" vertex="1">
          <mxGeometry x="1690" y="70" width="100" height="40" as="geometry" />
        </mxCell>
        <mxCell id="zyAhgqpcMAbRngAJx9lP-9" value="Yes" style="edgeStyle=orthogonalEdgeStyle;rounded=0;orthogonalLoop=1;jettySize=auto;html=1;" parent="1" source="zyAhgqpcMAbRngAJx9lP-5" target="zyAhgqpcMAbRngAJx9lP-8" edge="1">
          <mxGeometry relative="1" as="geometry" />
        </mxCell>
        <mxCell id="zyAhgqpcMAbRngAJx9lP-17" value="No" style="edgeStyle=orthogonalEdgeStyle;rounded=0;orthogonalLoop=1;jettySize=auto;html=1;" parent="1" source="zyAhgqpcMAbRngAJx9lP-5" target="zyAhgqpcMAbRngAJx9lP-14" edge="1">
          <mxGeometry relative="1" as="geometry" />
        </mxCell>
        <mxCell id="zyAhgqpcMAbRngAJx9lP-5" value="If&amp;nbsp; CurrentMode!=0" style="rhombus;whiteSpace=wrap;html=1;" parent="1" vertex="1">
          <mxGeometry x="685" y="145" width="110" height="107.5" as="geometry" />
        </mxCell>
        <mxCell id="zyAhgqpcMAbRngAJx9lP-16" value="No" style="edgeStyle=orthogonalEdgeStyle;rounded=0;orthogonalLoop=1;jettySize=auto;html=1;" parent="1" source="zyAhgqpcMAbRngAJx9lP-8" target="zyAhgqpcMAbRngAJx9lP-11" edge="1">
          <mxGeometry relative="1" as="geometry" />
        </mxCell>
        <mxCell id="zyAhgqpcMAbRngAJx9lP-23" value="Yes" style="edgeStyle=orthogonalEdgeStyle;rounded=0;orthogonalLoop=1;jettySize=auto;html=1;" parent="1" source="zyAhgqpcMAbRngAJx9lP-8" target="zyAhgqpcMAbRngAJx9lP-19" edge="1">
          <mxGeometry relative="1" as="geometry" />
        </mxCell>
        <mxCell id="zyAhgqpcMAbRngAJx9lP-8" value="If Index of SelectedTest !=-1" style="rhombus;whiteSpace=wrap;html=1;" parent="1" vertex="1">
          <mxGeometry x="690" y="280" width="100" height="95" as="geometry" />
        </mxCell>
        <mxCell id="zyAhgqpcMAbRngAJx9lP-10" value="" style="edgeStyle=orthogonalEdgeStyle;rounded=0;orthogonalLoop=1;jettySize=auto;html=1;" parent="1" source="zyAhgqpcMAbRngAJx9lP-11" target="zyAhgqpcMAbRngAJx9lP-12" edge="1">
          <mxGeometry relative="1" as="geometry" />
        </mxCell>
        <mxCell id="zyAhgqpcMAbRngAJx9lP-11" value="Messagebox:&amp;nbsp; No Test Selected" style="ellipse;whiteSpace=wrap;html=1;" parent="1" vertex="1">
          <mxGeometry x="820" y="288.25" width="120" height="80" as="geometry" />
        </mxCell>
        <mxCell id="zyAhgqpcMAbRngAJx9lP-12" value="End Loop" style="strokeWidth=2;html=1;shape=mxgraph.flowchart.terminator;whiteSpace=wrap;" parent="1" vertex="1">
          <mxGeometry x="1015" y="298.25" width="100" height="60" as="geometry" />
        </mxCell>
        <mxCell id="zyAhgqpcMAbRngAJx9lP-13" value="" style="edgeStyle=orthogonalEdgeStyle;rounded=0;orthogonalLoop=1;jettySize=auto;html=1;" parent="1" source="zyAhgqpcMAbRngAJx9lP-14" target="zyAhgqpcMAbRngAJx9lP-15" edge="1">
          <mxGeometry relative="1" as="geometry" />
        </mxCell>
        <mxCell id="zyAhgqpcMAbRngAJx9lP-14" value="Messagebox:&amp;nbsp; Error - not able to load test, current test in progress, or creating test." style="ellipse;whiteSpace=wrap;html=1;" parent="1" vertex="1">
          <mxGeometry x="835" y="152.5" width="150" height="95" as="geometry" />
        </mxCell>
        <mxCell id="zyAhgqpcMAbRngAJx9lP-15" value="End Loop" style="strokeWidth=2;html=1;shape=mxgraph.flowchart.terminator;whiteSpace=wrap;" parent="1" vertex="1">
          <mxGeometry x="1015" y="170" width="100" height="60" as="geometry" />
        </mxCell>
        <mxCell id="zyAhgqpcMAbRngAJx9lP-18" value="No" style="edgeStyle=orthogonalEdgeStyle;rounded=0;orthogonalLoop=1;jettySize=auto;html=1;" parent="1" source="zyAhgqpcMAbRngAJx9lP-19" target="zyAhgqpcMAbRngAJx9lP-21" edge="1">
          <mxGeometry relative="1" as="geometry" />
        </mxCell>
        <mxCell id="zyAhgqpcMAbRngAJx9lP-25" value="" style="edgeStyle=orthogonalEdgeStyle;rounded=0;orthogonalLoop=1;jettySize=auto;html=1;" parent="1" source="zyAhgqpcMAbRngAJx9lP-19" target="zyAhgqpcMAbRngAJx9lP-24" edge="1">
          <mxGeometry relative="1" as="geometry" />
        </mxCell>
        <mxCell id="zyAhgqpcMAbRngAJx9lP-19" value="If LoadTest(test) is True" style="rhombus;whiteSpace=wrap;html=1;" parent="1" vertex="1">
          <mxGeometry x="700" y="430" width="80" height="80" as="geometry" />
        </mxCell>
        <mxCell id="zyAhgqpcMAbRngAJx9lP-20" value="" style="edgeStyle=orthogonalEdgeStyle;rounded=0;orthogonalLoop=1;jettySize=auto;html=1;" parent="1" source="zyAhgqpcMAbRngAJx9lP-21" target="zyAhgqpcMAbRngAJx9lP-22" edge="1">
          <mxGeometry relative="1" as="geometry" />
        </mxCell>
        <mxCell id="zyAhgqpcMAbRngAJx9lP-21" value="Messagebox:&amp;nbsp; LoadTest failed" style="ellipse;whiteSpace=wrap;html=1;" parent="1" vertex="1">
          <mxGeometry x="827.5" y="430" width="120" height="80" as="geometry" />
        </mxCell>
        <mxCell id="zyAhgqpcMAbRngAJx9lP-22" value="End Loop" style="strokeWidth=2;html=1;shape=mxgraph.flowchart.terminator;whiteSpace=wrap;" parent="1" vertex="1">
          <mxGeometry x="1027.5" y="440" width="100" height="60" as="geometry" />
        </mxCell>
        <mxCell id="zyAhgqpcMAbRngAJx9lP-24" value="CurrentMode = 2" style="whiteSpace=wrap;html=1;" parent="1" vertex="1">
          <mxGeometry x="680" y="550" width="120" height="60" as="geometry" />
        </mxCell>
        <mxCell id="hBHiRlKZ0MR35Txenzxi-2" value="" style="edgeStyle=orthogonalEdgeStyle;rounded=0;orthogonalLoop=1;jettySize=auto;html=1;exitX=0.5;exitY=1;exitDx=0;exitDy=0;" edge="1" parent="1" target="hBHiRlKZ0MR35Txenzxi-4" source="zyAhgqpcMAbRngAJx9lP-2">
          <mxGeometry relative="1" as="geometry">
            <mxPoint x="1214" y="110" as="sourcePoint" />
            <Array as="points" />
          </mxGeometry>
        </mxCell>
        <mxCell id="hBHiRlKZ0MR35Txenzxi-3" value="No" style="edgeStyle=orthogonalEdgeStyle;rounded=0;orthogonalLoop=1;jettySize=auto;html=1;" edge="1" parent="1" source="hBHiRlKZ0MR35Txenzxi-4" target="hBHiRlKZ0MR35Txenzxi-6">
          <mxGeometry relative="1" as="geometry" />
        </mxCell>
        <mxCell id="hBHiRlKZ0MR35Txenzxi-4" value="If&amp;nbsp; mode!=0" style="rhombus;whiteSpace=wrap;html=1;" vertex="1" parent="1">
          <mxGeometry x="1180" y="145" width="80" height="80" as="geometry" />
        </mxCell>
        <mxCell id="hBHiRlKZ0MR35Txenzxi-5" value="" style="edgeStyle=orthogonalEdgeStyle;rounded=0;orthogonalLoop=1;jettySize=auto;html=1;" edge="1" parent="1" source="hBHiRlKZ0MR35Txenzxi-6" target="hBHiRlKZ0MR35Txenzxi-7">
          <mxGeometry relative="1" as="geometry" />
        </mxCell>
        <mxCell id="hBHiRlKZ0MR35Txenzxi-6" value="Messagebox:&amp;nbsp; Error - not able to load test, current test in progress, or creating test." style="ellipse;whiteSpace=wrap;html=1;" vertex="1" parent="1">
          <mxGeometry x="1340" y="135" width="150" height="95" as="geometry" />
        </mxCell>
        <mxCell id="hBHiRlKZ0MR35Txenzxi-7" value="End Loop" style="strokeWidth=2;html=1;shape=mxgraph.flowchart.terminator;whiteSpace=wrap;" vertex="1" parent="1">
          <mxGeometry x="1520" y="152.5" width="100" height="60" as="geometry" />
        </mxCell>
      </root>
    </mxGraphModel>
  </diagram>
  <diagram id="oTMPqpchAL877kF9N_FF" name="Test_Tab">
    <mxGraphModel dx="226" dy="829" grid="1" gridSize="10" guides="1" tooltips="1" connect="1" arrows="1" fold="1" page="1" pageScale="1" pageWidth="1600" pageHeight="1200" math="0" shadow="0">
      <root>
        <mxCell id="KdpddDH9nwrAEuhVS6P6-0" />
        <mxCell id="KdpddDH9nwrAEuhVS6P6-1" parent="KdpddDH9nwrAEuhVS6P6-0" />
        <mxCell id="YlXNsWhmcFPXiTCZ0Dzl-0" value="" style="edgeStyle=orthogonalEdgeStyle;rounded=0;orthogonalLoop=1;jettySize=auto;html=1;" parent="KdpddDH9nwrAEuhVS6P6-1" source="YlXNsWhmcFPXiTCZ0Dzl-1" target="YlXNsWhmcFPXiTCZ0Dzl-9" edge="1">
          <mxGeometry relative="1" as="geometry" />
        </mxCell>
        <mxCell id="YlXNsWhmcFPXiTCZ0Dzl-1" value="TestingLoadNextTestStage()" style="strokeWidth=2;html=1;shape=mxgraph.flowchart.start_2;whiteSpace=wrap;" parent="KdpddDH9nwrAEuhVS6P6-1" vertex="1">
          <mxGeometry x="2867.5" y="60" width="175" height="110" as="geometry" />
        </mxCell>
        <mxCell id="YlXNsWhmcFPXiTCZ0Dzl-2" value="For loading in the next test for the Tester." style="text;html=1;align=center;verticalAlign=middle;resizable=0;points=[];autosize=1;" parent="KdpddDH9nwrAEuhVS6P6-1" vertex="1">
          <mxGeometry x="2840" y="40" width="230" height="20" as="geometry" />
        </mxCell>
        <mxCell id="YlXNsWhmcFPXiTCZ0Dzl-3" value="No" style="edgeStyle=orthogonalEdgeStyle;rounded=0;orthogonalLoop=1;jettySize=auto;html=1;" parent="KdpddDH9nwrAEuhVS6P6-1" source="YlXNsWhmcFPXiTCZ0Dzl-5" target="YlXNsWhmcFPXiTCZ0Dzl-7" edge="1">
          <mxGeometry relative="1" as="geometry" />
        </mxCell>
        <mxCell id="YlXNsWhmcFPXiTCZ0Dzl-4" style="edgeStyle=orthogonalEdgeStyle;rounded=0;orthogonalLoop=1;jettySize=auto;html=1;exitX=0.5;exitY=1;exitDx=0;exitDy=0;entryX=0.5;entryY=0;entryDx=0;entryDy=0;entryPerimeter=0;" parent="KdpddDH9nwrAEuhVS6P6-1" source="YlXNsWhmcFPXiTCZ0Dzl-5" target="YlXNsWhmcFPXiTCZ0Dzl-12" edge="1">
          <mxGeometry relative="1" as="geometry" />
        </mxCell>
        <mxCell id="YlXNsWhmcFPXiTCZ0Dzl-5" value="If IgnoreSerial.IsChecked" style="rhombus;whiteSpace=wrap;html=1;strokeWidth=2;" parent="KdpddDH9nwrAEuhVS6P6-1" vertex="1">
          <mxGeometry x="2893.12" y="450" width="125" height="125" as="geometry" />
        </mxCell>
        <mxCell id="YlXNsWhmcFPXiTCZ0Dzl-6" style="edgeStyle=orthogonalEdgeStyle;rounded=0;orthogonalLoop=1;jettySize=auto;html=1;exitX=0.5;exitY=1;exitDx=0;exitDy=0;entryX=1;entryY=0.5;entryDx=0;entryDy=0;entryPerimeter=0;" parent="KdpddDH9nwrAEuhVS6P6-1" source="YlXNsWhmcFPXiTCZ0Dzl-7" target="YlXNsWhmcFPXiTCZ0Dzl-12" edge="1">
          <mxGeometry relative="1" as="geometry" />
        </mxCell>
        <mxCell id="YlXNsWhmcFPXiTCZ0Dzl-7" value="PinControl.ChangePinValues" style="whiteSpace=wrap;html=1;strokeWidth=2;" parent="KdpddDH9nwrAEuhVS6P6-1" vertex="1">
          <mxGeometry x="3030" y="580" width="157.5" height="80" as="geometry" />
        </mxCell>
        <mxCell id="YlXNsWhmcFPXiTCZ0Dzl-8" value="" style="edgeStyle=orthogonalEdgeStyle;rounded=0;orthogonalLoop=1;jettySize=auto;html=1;" parent="KdpddDH9nwrAEuhVS6P6-1" source="YlXNsWhmcFPXiTCZ0Dzl-9" target="YlXNsWhmcFPXiTCZ0Dzl-11" edge="1">
          <mxGeometry relative="1" as="geometry" />
        </mxCell>
        <mxCell id="YlXNsWhmcFPXiTCZ0Dzl-9" value="For x Pins Set Pin Value in PinControl" style="whiteSpace=wrap;html=1;strokeWidth=2;" parent="KdpddDH9nwrAEuhVS6P6-1" vertex="1">
          <mxGeometry x="2895" y="205" width="120" height="60" as="geometry" />
        </mxCell>
        <mxCell id="YlXNsWhmcFPXiTCZ0Dzl-10" value="" style="edgeStyle=orthogonalEdgeStyle;rounded=0;orthogonalLoop=1;jettySize=auto;html=1;entryX=0.5;entryY=0;entryDx=0;entryDy=0;" parent="KdpddDH9nwrAEuhVS6P6-1" source="YlXNsWhmcFPXiTCZ0Dzl-11" target="YlXNsWhmcFPXiTCZ0Dzl-5" edge="1">
          <mxGeometry relative="1" as="geometry">
            <mxPoint x="2955" y="455" as="targetPoint" />
          </mxGeometry>
        </mxCell>
        <mxCell id="YlXNsWhmcFPXiTCZ0Dzl-11" value="UpdateTestImageAndLabels" style="whiteSpace=wrap;html=1;strokeWidth=2;" parent="KdpddDH9nwrAEuhVS6P6-1" vertex="1">
          <mxGeometry x="2870.63" y="320" width="168.75" height="70" as="geometry" />
        </mxCell>
        <mxCell id="YlXNsWhmcFPXiTCZ0Dzl-12" value="Return True" style="strokeWidth=2;html=1;shape=mxgraph.flowchart.terminator;whiteSpace=wrap;" parent="KdpddDH9nwrAEuhVS6P6-1" vertex="1">
          <mxGeometry x="2905" y="670" width="100" height="60" as="geometry" />
        </mxCell>
        <mxCell id="Y_eFLCiuxUcnmmR3OJBC-0" value="Testing Close Test" style="strokeWidth=2;html=1;shape=mxgraph.flowchart.start_2;whiteSpace=wrap;" vertex="1" parent="KdpddDH9nwrAEuhVS6P6-1">
          <mxGeometry x="3290" y="47.5" width="160" height="135" as="geometry" />
        </mxCell>
      </root>
    </mxGraphModel>
  </diagram>
  <diagram id="SMSFAHEOyso0FMqhiWyN" name="New_Test_Tab">
    <mxGraphModel dx="1278" dy="580" grid="1" gridSize="10" guides="1" tooltips="1" connect="1" arrows="1" fold="1" page="1" pageScale="1" pageWidth="1600" pageHeight="1200" math="0" shadow="0">
      <root>
        <mxCell id="UUAGUkRDnq5GgsOfPD1d-0" />
        <mxCell id="UUAGUkRDnq5GgsOfPD1d-1" parent="UUAGUkRDnq5GgsOfPD1d-0" />
      </root>
    </mxGraphModel>
  </diagram>
  <diagram id="_egIpCoBASKqLesXLy-j" name="New_Test_Creator_Tab">
    <mxGraphModel dx="1422" dy="762" grid="1" gridSize="10" guides="1" tooltips="1" connect="1" arrows="1" fold="1" page="1" pageScale="1" pageWidth="1600" pageHeight="1200" math="0" shadow="0">
      <root>
        <mxCell id="siutL4MeuASW3l7Rrboq-0" />
        <mxCell id="siutL4MeuASW3l7Rrboq-1" parent="siutL4MeuASW3l7Rrboq-0" />
      </root>
    </mxGraphModel>
  </diagram>
</mxfile>
